<svg xmlns="http://www.w3.org/2000/svg" fill="none" viewBox="0 0 438 34"><path fill="currentColor" d="M10 16.75c0-4.82 3.12-8.49 7.99-8.49 3.74 0 7.07 1.9 7.07 4.6 0 1.25-.84 2.14-2.25 2.14-3.31 0-3.29-4.84-5.78-4.84-1.15 0-2.28 1.22-2.28 3.57 0 4.65 2.54 7.6 5.16 7.6 2.06 0 3-1.37 3.69-2.16.48-.55 1.41-.36 1.41.46 0 3.07-2.06 6.11-6.76 6.11-4.97 0-8.25-4.29-8.25-8.99ZM25.61 17.11c0-5.3 3.39-8.87 8.47-8.87 4.46 0 8.51 3.55 8.51 8.87 0 5.33-3.81 8.64-8.51 8.63a8.4 8.4 0 0 1-8.47-8.63Zm11.9 3.94c0-3.63-2.71-10.8-5.2-10.8-1.3 0-1.95.89-1.95 2.76 0 4.27 2.69 10.72 5.16 10.72 1.34 0 1.99-.86 1.99-2.68ZM63.6 24.91v.1c0 .3-.24.5-.6.5h-5.54c-.36 0-.6-.2-.6-.5v-.1c0-.74 1.06-1.13.86-2.28l-1.27-7.36-3.35 9.47c-.17.5-.41.74-.94.74s-.86-.21-1.08-.72l-4.02-9.97-1.1 7.84c-.18 1.17.85 1.53.85 2.28v.1c0 .3-.24.5-.6.5h-3.19c-.35 0-.6-.2-.6-.51v-.1c0-.74.82-1.1.99-2.27l1.7-11.27c.17-1.18-.98-1.54-.98-2.28v-.1c0-.31.24-.5.6-.5h3.6c.67 0 1.15.31 1.36.93l3.17 9.26 2.97-9.2c.22-.66.67-1 1.34-1h3.7c.36 0 .6.2.6.51v.1c0 .74-1.2 1.1-.98 2.28l2.13 11.27c.21 1.17.98 1.53.98 2.28ZM64.17 25v-.09c0-.74.99-1.1.99-2.27V11.36c0-1.17-.98-1.53-.98-2.28v-.1c0-.3.24-.5.6-.5h6.38c4.43 0 7.67 1.69 7.67 5.74 0 3.57-2.73 6-6.84 6h-1.84v2.41c0 1.18 1.1 1.54 1.1 2.28v.1c0 .3-.24.5-.6.5h-5.87c-.36 0-.6-.2-.6-.5ZM72 18.38c1.23 0 1.7-1.51 1.7-3 0-3.05-1.38-5.04-2.53-5.04h-.08c-.6 0-.93.46-.93 1.25v5.54c0 .79.3 1.25 1.17 1.25H72ZM96 24.92V25c0 .31-.24.5-.6.5h-6.53c-.36 0-.6-.2-.6-.5v-.1c0-.74 1.23-1 .63-2.27l-1.63-3.46-1.85.05v3.4c0 1.18 1.1 1.54 1.1 2.28v.1c0 .3-.23.5-.6.5h-5.87c-.36 0-.6-.2-.6-.5v-.1c0-.74.99-1.1.99-2.28V11.36c0-1.17-.99-1.53-.99-2.27v-.1c0-.31.24-.5.6-.5h6.86c4.46 0 7.27 1.87 7.27 5.47 0 1.63-.9 3.45-2.79 4.43l2.67 4.25c.88 1.41 1.94 1.53 1.94 2.28Zm-8.95-7.58h.48c.77 0 1.51-.77 1.51-2.9 0-2.45-1.39-4.08-2.52-4.08h-.12c-.6 0-.98.57-.98 1.34v3.6c0 1.53.55 2.03 1.63 2.03ZM113.89 24.92v.1c0 .3-.24.5-.6.5h-6.98c-.36 0-.6-.2-.6-.51v-.1c0-.74 1.51-1.1 1.1-2.27l-.38-1.1h-5.61l-.39 1.1c-.4 1.17 1.1 1.53 1.1 2.28V25c0 .31-.23.5-.6.5h-3.9c-.36 0-.6-.19-.6-.5v-.1c0-.74.93-.88 1.46-2.27l4.27-11.06c.38-1-.91-1.87-.91-2.5V9c0-.31.24-.5.6-.5h3.55c.88 0 1.41.38 1.77 1.25l5.25 12.9c.55 1.34 1.46 1.53 1.46 2.28h.01Zm-8.13-5.4-2.06-6.07-2.16 6.07h4.22ZM149.45 11.24c2.66.36 3.24 3.78 5.97 3.77 1.4 0 2.25-.88 2.25-2.13 0-2.7-3.33-4.59-7.06-4.59-4.86 0-7.97 3.66-7.97 8.47 0 4.68 3.28 8.97 8.23 8.97 4.7 0 6.75-3.04 6.75-6.1 0-.81-.93-1-1.41-.45-.7.78-1.63 2.15-3.69 2.15-2.6 0-5.18-2.95-5.14-7.59.02-2.2 1.34-2.6 2.08-2.5ZM175.5 8.3c-5.08 0-8.45 3.56-8.46 8.85a8.38 8.38 0 0 0 8.45 8.61c4.69 0 8.49-3.3 8.49-8.6 0-5.32-4.04-8.86-8.5-8.86h.01Zm1.33 15.06c-2.32 0-4.84-6.06-4.84-10.07 0-1.75.61-2.58 1.82-2.58 2.35 0 4.89 6.73 4.89 10.13 0 1.7-.6 2.52-1.87 2.52ZM133.15 8.5h-3.97c-.36 0-.6.2-.6.5v.1c0 .22.13.4.31.58l.07.07c.11.13.34.46.18.9l-3.17 6.83-2.92-6.11-.03-.11-.12-.29-.12-.32a.87.87 0 0 1 .18-.9l.06-.07c.18-.18.31-.36.31-.58V9c0-.3-.24-.5-.6-.5h-6.35c-.36 0-.6.2-.6.5v.1c0 .19.06.34.15.5l7.31 14.69.07.14.02.04c.37.68.86 1.01 1.65 1.01.96 0 1.53-.4 1.92-1.34l6.72-14.6a.8.8 0 0 0 .12-.44V9c0-.3-.24-.5-.6-.5ZM140.6 8.5h-4.92c-.36 0-.6.2-.6.5v.1c0 .22.13.4.31.58l.06.07c.1.1.25.32.24.6v13.28c0 .3-.15.5-.24.6l-.06.07c-.18.19-.31.37-.31.59v.1c0 .3.24.5.6.5h4.91c.36 0 .6-.2.6-.5v-.1c0-.22-.13-.4-.31-.58a.91.91 0 0 1-.3-.67V10.35c0-.3.14-.5.24-.6l.06-.07c.18-.18.31-.37.31-.59v-.09c0-.31-.24-.5-.6-.5ZM164.94 8.5h-4.92c-.36 0-.6.2-.6.51v.1c0 .21.14.4.32.58l.06.06c.09.1.24.32.24.61v13.27c0 .3-.15.51-.24.61l-.07.07c-.17.18-.3.36-.3.58v.1c0 .3.23.5.59.5h4.92c.36 0 .6-.2.6-.5v-.1c0-.21-.14-.4-.32-.58a.91.91 0 0 1-.3-.67V10.36c0-.29.15-.5.24-.6l.07-.07c.17-.18.3-.37.3-.58V9c0-.3-.23-.5-.59-.5ZM181.85 8.81c.08 0 .1-.19.21-.19h.05v.78c0 .07-.07.1-.07.14 0 .03.01.04.04.04h.37c.02 0 .04-.01.04-.03 0-.06-.07-.08-.07-.15v-.78h.04c.11 0 .13.2.21.2h.03c.03 0 .05-.03.05-.06l-.03-.22c0-.03-.03-.05-.06-.05h-.8c-.03 0-.05.02-.05.05l-.03.22c0 .03.01.05.04.05h.03ZM184.03 9.4l-.14-.72c-.01-.08.07-.1.07-.15 0-.03-.02-.04-.04-.04h-.24c-.04 0-.07.02-.08.07l-.2.58-.2-.59c0-.04-.04-.06-.08-.06h-.23c-.02 0-.04.02-.04.04 0 .05.08.07.07.15l-.11.72c-.01.07-.07.1-.07.14v.01c0 .02.02.03.04.03h.2c.03 0 .04-.01.04-.03 0-.05-.06-.08-.05-.15l.07-.5.25.63c.02.04.04.05.07.05.04 0 .05-.01.06-.05l.22-.6.08.47c.01.07-.06.1-.06.15 0 .02.02.04.04.04h.35c.03 0 .04-.02.04-.04 0-.05-.05-.08-.06-.15Z"/><path stroke="currentColor" d="M.5.74h193.09v32.52H.5z"/><path fill="currentColor" d="M207.22.03h-7.13v33.94h7.13V.03ZM208.99.03h-.89v33.94h.89V.03ZM210.78.03h-.89v33.94h.89V.03ZM212.55.03h-.89v33.94h.89V.03ZM266.85.03h-6.23v33.94h6.23V.03ZM268.64.03h-.89v33.94h.89V.03ZM272.2.03h-.9v33.94h.9V.03ZM273.98.03h-.89v33.94h.89V.03ZM276.65.03h-.88v33.94h.88V.03ZM225.01 2.15h.9v2.11h1.78v-2.1h1.78V.02h-4.46v2.12ZM248.17 2.15h.88v10.6h-.88v8.49h.88v2.12h-.88v4.25h1.77v2.11h-1.77v4.25h-2.67V.03h2.67v2.12Z"/><path fill="currentColor" d="M247.27 29.72h-.89v2.13h.89v-2.13ZM247.27 23.36h-.89v4.25h.89v-4.25ZM247.27 12.75h-.89v8.49h.89v-8.49ZM248.17 4.26h-.9v4.25h.9V4.26ZM249.94.03h-.89v2.12h.89V.03ZM251.73.03h-.89v2.12h.89V.03ZM255.28.03h-2.67v2.12h2.67V.03ZM221.46.03h-.89v4.23h.89V.03Z"/><path fill="currentColor" d="M223.25.03h-.9v4.23h-.9v4.25h-1.78v2.13h.9v2.11h-.9v6.38h1.79V17h-.89v-2.13h1.77v-2.12h-.88v-2.11h.88V6.39h.9v2.12h2.66V4.26h-2.66V.03ZM252.61 2.15h-.88v2.13h.88V2.15Z"/><path fill="currentColor" d="M220.56 4.26h-.89V6.4h.89V4.26ZM219.67 6.39h-.88v2.12h.88V6.4ZM253.51 8.51h.89v2.13h.88v2.11h.9v2.13h-1.78V17h-2.68v2.13h.9v2.1h-1.78v-2.1h-.9V17h-.89v-2.13h.89V2.15h.9V6.4h2.67v2.12Z"/><path fill="currentColor" d="M253.5 12.75h-.89v2.13h.89v-2.13ZM251.73 8.51h-.89v4.24h.89V8.51ZM258.85 6.39h-.9V4.26h-1.77v-2.1h-.9v2.1h-1.77V6.4h.89v2.12h2.67v2.13h1.78v2.11h.89V8.51h-.89V6.4ZM226.79 8.51h-.89v2.13h.89V8.51ZM219.67 10.64v2.11h-1.77v2.13h.89V17h-.89v2.13h-.9V17h-.88v2.13h.88v8.48h.9v-8.48h.89v12.72H217v2.12h-1.77V.03h4.44v4.23h-.88V6.4h-.89V4.26h-.9V6.4h.9v2.12h-.9v2.13h.9V8.51h.89v2.13h.88Z"/><path fill="currentColor" d="M217 12.75h-.88v2.13h.88v-2.13ZM225.02 10.64h-2.68v2.12h2.68v-2.12ZM229.46 10.64h-.89v2.12h.89v-2.12Z"/><path fill="currentColor" d="M227.69 12.75H225v2.13h2.68v-2.13Z"/><path fill="currentColor" d="M224.13 17h-.88v-2.13h-.9v4.26h-.9v2.1h-.88v2.13h.89v2.13h.88v-2.13h.9v-2.12h.89v-2.11h.89v2.1h.88v2.13h-1.77v2.13h.89v2.12h1.78v-2.12h1.77v-2.13h-1.77v-2.12h1.77v-2.11h-1.77V17h-1.78v-2.12h-.89V17ZM255.28 19.13v2.1h1.79v-2.1h1.78V17h.89v-2.12h-2.67V17h-2.67v2.13h.88ZM250.83 21.24h-.89v2.12h.89v-2.12ZM252.61 23.36h-1.77v2.13h.89v2.12h1.78v-2.12h-.9v-2.13Z"/><path fill="currentColor" d="M255.28 23.36v-2.12h-2.67v2.12h.9v2.13h3.56v4.23h-1.79v4.25h2.67v-2.12h1.79v-2.13h-.89v-4.23h-.9v-2.13h1.79v-2.12h-2.67v2.12h-1.79ZM224.13 25.49h-.88v4.23h.88v-4.23ZM251.73 27.61h-.89v2.13h.89V27.6Z"/><path fill="currentColor" d="M255.28 27.61h-.88v2.13h.88V27.6ZM220.57 27.61h-.9v4.24h.9V27.6ZM224.13 29.72v2.13h-.88v2.12h2.65v-2.12h1.79V27.6h-.89v2.11h-2.67ZM229.46 29.72h-.89v2.13h.89v-2.13ZM235.7.03h-.89v2.12h.89V.03ZM240.16 2.15h.88V.03h-1.78v2.12h-1.78v2.11h-.9v4.25h2.67V6.4h.9V2.15ZM242.83 2.15h-1.79v2.13h1.79V2.15ZM243.71 6.39h.89V2.15h-.89V6.4ZM235.7 4.26h-.89V6.4h.89V4.26ZM240.16 12.75h.88v2.13h.89v-2.13h.9v2.13h-.9V17h-2.68v2.13h.9v6.36h2.68v2.12h1.77v-2.12h-.89v-2.13h-1.78v-2.12h-.89v-2.11h1.79V17h.88v-2.13h.89v-2.12h-.89v-2.11h-.88V8.51h.88V6.4h-3.56v6.36ZM235.7 14.88h.88v-2.13h.9v-2.11h-.9V8.51h-.88v6.37Z"/><path fill="currentColor" d="M244.6 8.51h-.89v2.13h.89V8.51ZM233.93 10.64h-1.79v2.12h1.79v-2.12ZM239.26 14.88h-.89V17h.88v-2.12Z"/><path fill="currentColor" d="M233.91 19.13h-.88v4.23h-.89v2.13h-.9v6.36h.9v2.12h-1.78V.03h1.78v2.12h.89V.03h.88v2.12h.9v2.11h-.9v4.25h-.88V6.4h-.89v4.25h-.9v2.11h.9v2.13h2.67V17h-.9v2.13Z"/><path fill="currentColor" d="M232.14 17h-.9v4.24h.9V17ZM235.7 17v2.13h1.79v-4.25h-.9V17h-.9ZM236.58 21.24v2.12h.9v4.25h-2.67v-2.12h.89v-4.25h-.89v2.12h-.9v8.49h1.79v2.12h.88v-2.12h.9v-2.13h.89v-2.11h.88v-2.12h-.88v-2.13h.88v-2.12h-.88v-2.11h-.88v2.1h-.9ZM233.03 27.61h-.89v2.13h.89V27.6ZM241.04 33.97h1.79v-2.12h-.9v-2.13h.9v-2.11h-1.79v6.36ZM239.25 33.97h.9v-4.25h-.9v4.25ZM254.4 29.72h-1.79v2.13h1.79v-2.13ZM219.67 31.85h-.88v2.12h.88v-2.12ZM222.36 31.85h-1.79v2.12h1.79v-2.12ZM250.83 31.85h-.89v2.12h.89v-2.12ZM252.61 31.85h-.88v2.12h.88v-2.12ZM320.3 9.95h-4.21c-.38 0-.63.2-.63.53v.1c0 .24.14.43.32.62l.07.07a.9.9 0 0 1 .2.96l-3.35 7.22-3.09-6.46-.04-.12-.12-.31-.13-.34a.9.9 0 0 1 .19-.96l.07-.07c.2-.2.33-.39.33-.62v-.1c0-.33-.25-.54-.64-.54h-6.73c-.38 0-.63.2-.63.53v.1c0 .21.06.37.16.54l7.73 15.54.08.14v.05h.01c.38.72.9 1.08 1.76 1.08 1.02 0 1.62-.43 2.02-1.42l7.1-15.45a.93.93 0 0 0 .13-.46v-.1c0-.33-.25-.53-.63-.53h.03Z"/><path fill="currentColor" d="M311.44 1.14c8.75 0 15.87 7.1 15.87 15.86a15.88 15.88 0 0 1-31.73 0c0-8.75 7.11-15.86 15.86-15.86Zm0-1.11a16.97 16.97 0 1 0 0 33.95 16.97 16.97 0 0 0 0-33.95Z"/><path fill="currentColor" d="M323.25 1.14c8.75 0 15.86 7.1 15.86 15.86 0 8.75-7.11 15.86-15.86 15.86h-23.63A15.88 15.88 0 0 1 283.76 17c0-8.75 7.11-15.86 15.86-15.86h23.63Zm0-1.11h-23.63a16.97 16.97 0 0 0 0 33.94h23.63a16.97 16.97 0 0 0 0-33.94ZM427.73 10.37a20.74 20.74 0 0 0-3.9-2.89 37.63 37.63 0 0 0-5.19-2.5 60.99 60.99 0 0 0-8-2.5A86.3 86.3 0 0 0 395.12.17C393 .06 390.84 0 388.64 0c-23.43 0-42.42 7.61-42.42 17 0 2.94 1.86 5.7 5.12 8.1.65.49 1.36.95 2.12 1.4 1.52.9 3.26 1.74 5.18 2.51 1.45.58 2.98 1.1 4.62 1.61a87.16 87.16 0 0 0 21.86 3.32 97.09 97.09 0 0 0 23.04-1.84c1.94-.4 3.8-.87 5.56-1.4.22-.05.44-.12.64-.18 1.51-.46 2.94-.96 4.28-1.5 1.92-.76 3.66-1.6 5.18-2.5.77-.46 1.48-.92 2.13-1.4.65-.5 1.25-.98 1.78-1.5 2.14-2.03 3.34-4.26 3.34-6.6 0-2.35-1.18-4.6-3.34-6.62v-.03ZM388.64 33.6c-21.59 0-39.07-7.44-39.07-16.61 0-9.18 17.48-16.6 39.07-16.6 21.6 0 39.08 7.43 39.08 16.61s-17.5 16.62-39.08 16.62v-.02Z"/><path fill="currentColor" d="M368.77 25.43a5.21 5.21 0 0 1-3.16 1.24c-.71 0-1.29-.18-1.76-.52-.47-.35-.85-.8-1.14-1.36a6.7 6.7 0 0 1-.6-1.9 13.13 13.13 0 0 1-.07-3.9h7.4l.25-1.16h-7.5c.04-.36.11-.68.17-1l.24-1.01h7.55l.25-1.17h-7.5c.3-1.01.69-1.99 1.14-2.92.46-.93.98-1.75 1.55-2.46a7.72 7.72 0 0 1 1.92-1.71c.7-.43 1.45-.65 2.27-.65.54 0 1.02.11 1.45.34.43.22.8.59 1.1 1.09.32.5.55 1.16.72 2 .16.85.25 1.88.25 3.1h.28l1.18-7.23h-.28c-.18.36-.36.58-.54.71a.85.85 0 0 1-.53.18c-.2 0-.4-.06-.6-.18a6.84 6.84 0 0 0-1.65-.77 6.53 6.53 0 0 0-4.4.53 9.52 9.52 0 0 0-2.55 1.9c-.77.8-1.44 1.74-2.03 2.78a18.57 18.57 0 0 0-1.44 3.32h-2.36l-.25 1.17h2.25l-.23 1c-.08.33-.13.67-.18 1h-2.32l-.25 1.17h2.45c-.04.52-.07 1.02-.07 1.54 0 1 .09 1.96.28 2.87.2.92.49 1.73.87 2.42.4.7.9 1.24 1.5 1.66.61.41 1.33.62 2.16.62 1.25 0 2.55-.5 3.88-1.52 1.34-1 2.52-2.56 3.57-4.64l-.38-.28a10.98 10.98 0 0 1-2.92 3.78l.03-.04Z"/><path fill="currentColor" d="M382.55 25.43a5.21 5.21 0 0 1-3.16 1.24c-.7 0-1.28-.18-1.75-.52-.48-.35-.86-.8-1.14-1.36a6.71 6.71 0 0 1-.6-1.9 13.13 13.13 0 0 1-.08-3.9h7.4l.26-1.16h-7.51c.04-.36.12-.68.17-1l.24-1.01h7.56l.25-1.17h-7.51c.3-1.01.69-1.99 1.15-2.92a13 13 0 0 1 1.55-2.46 7.7 7.7 0 0 1 1.92-1.71c.69-.43 1.44-.65 2.27-.65.53 0 1.02.11 1.44.34.43.22.8.59 1.11 1.09.31.5.55 1.16.7 2 .17.85.26 1.88.26 3.1h.28l1.18-7.23h-.28c-.18.36-.35.58-.53.71a.95.95 0 0 1-.53.18c-.2 0-.41-.06-.6-.18a9.12 9.12 0 0 0-1.65-.77 6.54 6.54 0 0 0-4.4.53 9.55 9.55 0 0 0-2.55 1.9c-.76.8-1.43 1.74-2.02 2.78a18.5 18.5 0 0 0-1.44 3.32h-2.37l-.25 1.17h2.26l-.23 1c-.08.33-.14.67-.18 1h-2.32l-.25 1.17h2.45a13.99 13.99 0 0 0 .2 4.41c.2.92.5 1.73.88 2.42.4.7.9 1.24 1.5 1.66.6.41 1.33.62 2.16.62 1.25 0 2.55-.5 3.88-1.52 1.34-1 2.52-2.56 3.57-4.64l-.38-.28a10.98 10.98 0 0 1-2.92 3.78l.01-.04Z"/><path fill="currentColor" d="M396.33 25.43a5.2 5.2 0 0 1-3.16 1.24c-.7 0-1.28-.18-1.75-.52a3.8 3.8 0 0 1-1.14-1.36 6.7 6.7 0 0 1-.6-1.9 13.13 13.13 0 0 1-.08-3.9h7.41l.25-1.16h-7.51c.04-.36.12-.68.18-1 .07-.33.14-.67.23-1.01h7.56l.25-1.17h-7.51c.3-1.01.7-1.99 1.15-2.92a13 13 0 0 1 1.55-2.46 7.72 7.72 0 0 1 1.92-1.71c.7-.43 1.44-.65 2.27-.65.53 0 1.02.11 1.45.34.42.22.8.59 1.1 1.09.31.5.55 1.16.71 2 .16.85.25 1.88.25 3.1h.28l1.18-7.23h-.28c-.17.36-.35.58-.53.71a.95.95 0 0 1-.53.18c-.2 0-.41-.06-.6-.18a6.84 6.84 0 0 0-1.65-.77 6.54 6.54 0 0 0-4.4.53 9.52 9.52 0 0 0-2.56 1.9c-.76.8-1.43 1.74-2.02 2.78a18.57 18.57 0 0 0-1.45 3.32h-2.36l-.25 1.17h2.26l-.24 1c-.07.33-.13.67-.17 1h-2.32l-.25 1.17h2.45c-.05.52-.07 1.02-.07 1.54 0 1 .08 1.96.27 2.87.2.92.5 1.73.88 2.42.4.7.9 1.24 1.5 1.66.6.41 1.33.62 2.16.62 1.25 0 2.55-.5 3.88-1.52a13.18 13.18 0 0 0 3.57-4.64l-.39-.28a10.95 10.95 0 0 1-2.92 3.78l.03-.04Z"/><path fill="currentColor" d="M415.32 6.88a.95.95 0 0 1-.53.17c-.2 0-.41-.06-.6-.17a9.12 9.12 0 0 0-1.64-.77 6.54 6.54 0 0 0-4.4.53 9.55 9.55 0 0 0-2.55 1.9c-.77.8-1.43 1.73-2.02 2.78a18.5 18.5 0 0 0-1.45 3.32h-2.36l-.25 1.16h2.26c-.1.36-.17.68-.24 1-.07.33-.13.67-.18 1.01h-2.31l-.25 1.17h2.44a13.99 13.99 0 0 0 .2 4.41c.2.91.5 1.73.88 2.42.4.7.9 1.24 1.5 1.65.61.42 1.34.62 2.16.62 1.26 0 2.56-.5 3.88-1.52a13.18 13.18 0 0 0 3.57-4.63l-.38-.28a10.96 10.96 0 0 1-2.92 3.78 5.21 5.21 0 0 1-3.16 1.24c-.7 0-1.28-.18-1.76-.52-.47-.35-.85-.8-1.13-1.36a6.71 6.71 0 0 1-.6-1.9 13.13 13.13 0 0 1-.08-3.9h7.4l.26-1.16h-7.51c.04-.36.12-.68.17-1l.24-1.01h7.56l.25-1.17h-7.51c.3-1.01.69-1.99 1.15-2.92a13 13 0 0 1 1.55-2.46 7.7 7.7 0 0 1 1.91-1.71c.7-.43 1.45-.65 2.28-.65.53 0 1.02.11 1.44.34.43.22.8.59 1.11 1.09.31.5.55 1.16.7 2 .17.85.26 1.88.26 3.1h.28l1.18-7.23h-.28c-.18.36-.35.58-.53.71l.01-.04Z"/></svg>