<svg id="Layer_1" data-name="Layer 1" xmlns="http://www.w3.org/2000/svg" viewBox="0 0 181.66 55.2"><defs><style>.cls-1{stroke:#000;stroke-miterlimit:10;stroke-width:4px;}</style></defs><path class="cls-1" d="M13.2,35.54v1.72a7.16,7.16,0,0,0,2,5.35,7.44,7.44,0,0,0,5.44,2,7.41,7.41,0,0,0,5.44-2,7.13,7.13,0,0,0,2-5.35V2h11.2V37.71a15.31,15.31,0,0,1-1.41,6.75,13.58,13.58,0,0,1-3.9,4.87A17,17,0,0,1,28,52.24a27.36,27.36,0,0,1-7.4,1,27.29,27.29,0,0,1-7.39-1,17,17,0,0,1-5.92-2.91,13.58,13.58,0,0,1-3.9-4.87A15.31,15.31,0,0,1,2,37.71V35.54Z"/><path class="cls-1" d="M75.92,41.74H56.59L53,52.24H41.81L60.5,2H72L90.7,52.24H79.5ZM65.42,15.89l-6,17.34H73L67.09,15.89l-.83-3Z"/><path class="cls-1" d="M94.54,44l25.73-33.34h-25V2h37.95v8.26L107.47,43.6H133.9v8.64H94.54Z"/><path class="cls-1" d="M140.3,44,166,10.64h-25V2h38v8.26L153.23,43.6h26.43v8.64H140.3Z"/></svg>