<svg id="Layer_1" data-name="Layer 1" xmlns="http://www.w3.org/2000/svg" viewBox="0 0 344.16 56.16"><defs><style>.cls-1{stroke:#000;stroke-miterlimit:10;stroke-width:4px;}</style></defs><path class="cls-1" d="M2,3H40V11.6H13.2V23.82H38.74v8.64H13.2V53.2H2Z"/><path class="cls-1" d="M45.78,3H84.43V11.6H57V23.5H83.15v8.58H57V44.56H85.07V53.2H45.78Z"/><path class="cls-1" d="M114.64,54.16a33.27,33.27,0,0,1-9-1.15,25.57,25.57,0,0,1-7.23-3.2,17.86,17.86,0,0,1-5.06-5,16.22,16.22,0,0,1-2.53-6.5H102a8.07,8.07,0,0,0,4.42,5.44,17.82,17.82,0,0,0,8.06,1.73,14.79,14.79,0,0,0,7.59-1.66,5.2,5.2,0,0,0,2.78-4.68q0-5.05-7.36-6.46L105,30.29Q98.57,29,95.44,25.42a13.27,13.27,0,0,1-3.14-9.08,11.94,11.94,0,0,1,1.38-5.64,13.22,13.22,0,0,1,4-4.54,21.13,21.13,0,0,1,6.53-3A31.83,31.83,0,0,1,113.1,2a26.85,26.85,0,0,1,8.26,1.22A23.77,23.77,0,0,1,128,6.48a18.24,18.24,0,0,1,4.64,4.77A15.52,15.52,0,0,1,135,17H123.66a7,7,0,0,0-3.52-4.74,14.9,14.9,0,0,0-7.42-1.6,13,13,0,0,0-6.85,1.57,4.64,4.64,0,0,0-2.56,4.06A4.41,4.41,0,0,0,104.88,20a10.5,10.5,0,0,0,4.51,1.83l10.69,2.11q8.39,1.66,12.13,5.44a13.09,13.09,0,0,1,3.74,9.6,13,13,0,0,1-5.89,11.26,21.55,21.55,0,0,1-6.72,3A34.39,34.39,0,0,1,114.64,54.16Z"/><path class="cls-1" d="M139.15,3h43.14v8.7H166.35V53.2H155.09V11.66H139.15Z"/><path class="cls-1" d="M189,3h11.26V53.2H189Z"/><path class="cls-1" d="M225.36,53.2,207,3h11.2l12.1,34.43.83,3.27.83-3.27L244.05,3h11.2L236.88,53.2Z"/><path class="cls-1" d="M284.24,42.7H264.91l-3.58,10.5h-11.2L268.81,3h11.52L299,53.2h-11.2Zm-10.5-25.85-5.95,17.34h13.5l-5.88-17.34-.84-3Z"/><path class="cls-1" d="M304.14,3h11.27v41.6h26.75V53.2h-38Z"/></svg>