<svg id="Layer_1" data-name="Layer 1" xmlns="http://www.w3.org/2000/svg" viewBox="0 0 252.54 56.16"><defs><style>.cls-1{stroke:#000;stroke-miterlimit:10;stroke-width:4px;}</style></defs><path class="cls-1" d="M26.15,54.16a33.27,33.27,0,0,1-9-1.15,25.7,25.7,0,0,1-7.23-3.2,18,18,0,0,1-5.06-5,16.07,16.07,0,0,1-2.52-6.5h11.2A8.08,8.08,0,0,0,18,43.79,17.86,17.86,0,0,0,26,45.52a14.75,14.75,0,0,0,7.58-1.66,5.18,5.18,0,0,0,2.78-4.68q0-5.05-7.36-6.46L16.49,30.29Q10.09,29,7,25.42a13.26,13.26,0,0,1-3.13-9.08A12.05,12.05,0,0,1,5.19,10.7a13.25,13.25,0,0,1,4-4.54,21.07,21.07,0,0,1,6.52-3A31.91,31.91,0,0,1,24.62,2a26.78,26.78,0,0,1,8.25,1.22A23.84,23.84,0,0,1,39.5,6.48a18.4,18.4,0,0,1,4.64,4.77A15.86,15.86,0,0,1,46.51,17H35.18a7,7,0,0,0-3.52-4.74,15,15,0,0,0-7.43-1.6,13,13,0,0,0-6.84,1.57,4.64,4.64,0,0,0-2.56,4.06A4.43,4.43,0,0,0,16.39,20a10.55,10.55,0,0,0,4.52,1.83l10.68,2.11Q40,25.56,43.72,29.33a13.06,13.06,0,0,1,3.75,9.6,13.1,13.1,0,0,1-5.89,11.26,21.76,21.76,0,0,1-6.72,3A34.47,34.47,0,0,1,26.15,54.16Z"/><path class="cls-1" d="M55.15,3H93.8V11.6H66.35V23.5H92.52v8.58H66.35V44.56H94.44V53.2H55.15Z"/><path class="cls-1" d="M152.94,28.05a29.53,29.53,0,0,1-1.86,10.75A23.44,23.44,0,0,1,145.8,47a23.16,23.16,0,0,1-8.22,5.28,31.65,31.65,0,0,1-21.38,0A23.16,23.16,0,0,1,108,47a23.44,23.44,0,0,1-5.28-8.22,29.53,29.53,0,0,1-1.86-10.75A29.53,29.53,0,0,1,102.7,17.3,23.26,23.26,0,0,1,108,9.1a23.49,23.49,0,0,1,8.22-5.24,31.65,31.65,0,0,1,21.38,0A23.49,23.49,0,0,1,145.8,9.1a23.26,23.26,0,0,1,5.28,8.2A29.53,29.53,0,0,1,152.94,28.05Zm-11.2,0a23.06,23.06,0,0,0-1.12-7.43,16.08,16.08,0,0,0-3.07-5.47,12.94,12.94,0,0,0-4.68-3.36,16.12,16.12,0,0,0-12,0,12.94,12.94,0,0,0-4.68,3.36,16.08,16.08,0,0,0-3.07,5.47A23.06,23.06,0,0,0,112,28.05a23,23,0,0,0,1.12,7.42A16.47,16.47,0,0,0,116.23,41a12.78,12.78,0,0,0,4.68,3.39,16.12,16.12,0,0,0,12,0A12.78,12.78,0,0,0,137.55,41a16.47,16.47,0,0,0,3.07-5.51A23,23,0,0,0,141.74,28.05Z"/><path class="cls-1" d="M182.25,54.16a32,32,0,0,1-8.45-1.06,19.24,19.24,0,0,1-6.75-3.23,15.2,15.2,0,0,1-4.48-5.53,17.9,17.9,0,0,1-1.63-7.91V3h11.2v32.7c0,3.2.88,5.65,2.65,7.33s4.26,2.53,7.46,2.53,5.68-.84,7.46-2.53,2.65-4.13,2.65-7.33V3h11.2V36.43a17.9,17.9,0,0,1-1.63,7.91,15.2,15.2,0,0,1-4.48,5.53,19.24,19.24,0,0,1-6.75,3.23A32.06,32.06,0,0,1,182.25,54.16Z"/><path class="cls-1" d="M212.52,3h11.27v41.6h26.75V53.2h-38Z"/></svg>