<svg id="Layer_1" data-name="Layer 1" xmlns="http://www.w3.org/2000/svg" viewBox="0 0 570.72 56.16"><defs><style>.cls-1{stroke:#000;stroke-miterlimit:10;stroke-width:4px;}</style></defs><path class="cls-1" d="M25.3,3q8.76,0,13.6,4.22t4.83,12a18.62,18.62,0,0,1-1.25,7,14.28,14.28,0,0,1-3.62,5.28,16,16,0,0,1-5.79,3.36,23.88,23.88,0,0,1-7.84,1.19h-12V53.2H2V3Zm-.58,24.45a7.56,7.56,0,0,0,5.86-2.21,8.08,8.08,0,0,0,2-5.66,8.2,8.2,0,0,0-2-5.7,7.5,7.5,0,0,0-5.86-2.24H13.2V27.41Z"/><path class="cls-1" d="M74.06,3a25,25,0,0,1,7.65,1.09,16.63,16.63,0,0,1,5.83,3.13,13.62,13.62,0,0,1,3.68,5A17.12,17.12,0,0,1,92.5,19,16.69,16.69,0,0,1,90,28.3a15.15,15.15,0,0,1-7.1,5.76L94.42,53.2H82.64L72.46,35.66H61.33V53.2H50.13V3ZM73.49,27a7.78,7.78,0,0,0,5.76-2.11,7.52,7.52,0,0,0,2.11-5.57,7.63,7.63,0,0,0-2.11-5.6,7.76,7.76,0,0,0-5.76-2.14H61.33V27Z"/><path class="cls-1" d="M101.14,3H112.4V53.2H101.14Z"/><path class="cls-1" d="M137.49,53.2,119.12,3h11.2l12.1,34.43.83,3.27.83-3.27L156.18,3h11.2L149,53.2Z"/><path class="cls-1" d="M196.37,42.7H177l-3.58,10.5h-11.2L180.94,3h11.52L211.15,53.2H200Zm-10.5-25.85-6,17.34h13.5l-5.88-17.34-.84-3Z"/><path class="cls-1" d="M207.31,3h43.14v8.7H234.51V53.2H223.25V11.66H207.31Z"/><path class="cls-1" d="M256.21,3h38.65V11.6H267.41V23.5h26.17v8.58H267.41V44.56H295.5V53.2H256.21Z"/><path class="cls-1" d="M370.57,35.54a25.55,25.55,0,0,1-3.32,7.8,22.15,22.15,0,0,1-5.51,5.86,24.47,24.47,0,0,1-7.45,3.68,31,31,0,0,1-9.06,1.28,28.69,28.69,0,0,1-10.56-1.86,22.67,22.67,0,0,1-8.1-5.28,23.85,23.85,0,0,1-5.21-8.22,29.53,29.53,0,0,1-1.86-10.75,29.53,29.53,0,0,1,1.86-10.75,23.67,23.67,0,0,1,5.21-8.2,23,23,0,0,1,8.1-5.24A28.69,28.69,0,0,1,345.23,2a30.38,30.38,0,0,1,9.06,1.31A25.23,25.23,0,0,1,361.74,7a21.26,21.26,0,0,1,5.44,5.86,24.46,24.46,0,0,1,3.14,7.74H359a12.6,12.6,0,0,0-5-7.39,15.26,15.26,0,0,0-8.8-2.46A14.24,14.24,0,0,0,339.37,12a13,13,0,0,0-4.57,3.39,16.17,16.17,0,0,0-3,5.41,22.54,22.54,0,0,0-1.09,7.3,22.44,22.44,0,0,0,1.09,7.29,16.32,16.32,0,0,0,3,5.44,12.79,12.79,0,0,0,4.57,3.43,14.24,14.24,0,0,0,5.86,1.18A15,15,0,0,0,354,42.9a14.29,14.29,0,0,0,5.25-7.3Z"/><path class="cls-1" d="M399.57,54.16a32,32,0,0,1-8.45-1.06,19.15,19.15,0,0,1-6.75-3.23,15.09,15.09,0,0,1-4.48-5.53,17.9,17.9,0,0,1-1.64-7.91V3h11.2v32.7c0,3.2.89,5.65,2.66,7.33s4.26,2.53,7.46,2.53,5.68-.84,7.45-2.53,2.66-4.13,2.66-7.33V3h11.2V36.43a18,18,0,0,1-1.63,7.91,15.3,15.3,0,0,1-4.48,5.53A19.2,19.2,0,0,1,408,53.1,31.93,31.93,0,0,1,399.57,54.16Z"/><path class="cls-1" d="M453.77,3a25,25,0,0,1,7.65,1.09,16.63,16.63,0,0,1,5.83,3.13,13.62,13.62,0,0,1,3.68,5A17.12,17.12,0,0,1,472.21,19a16.69,16.69,0,0,1-2.5,9.28,15.15,15.15,0,0,1-7.1,5.76L474.13,53.2H462.35L452.17,35.66H441V53.2h-11.2V3ZM453.2,27A7.78,7.78,0,0,0,459,24.91a7.52,7.52,0,0,0,2.11-5.57,7.63,7.63,0,0,0-2.11-5.6,7.76,7.76,0,0,0-5.76-2.14H441V27Z"/><path class="cls-1" d="M493.77,53.2,475.41,3h11.2L498.7,37.39l.83,3.27.84-3.27L512.46,3h11.2L505.29,53.2Z"/><path class="cls-1" d="M529.42,3h38.66V11.6H540.62V23.5H566.8v8.58H540.62V44.56h28.1V53.2h-39.3Z"/></svg>