<svg id="Layer_1" data-name="Layer 1" xmlns="http://www.w3.org/2000/svg" viewBox="0 0 333.28 56.16"><defs><style>.cls-1{stroke:#000;stroke-miterlimit:10;stroke-width:4px;}</style></defs><path class="cls-1" d="M2,3H45.14v8.7H29.2V53.2H17.94V11.66H2Z"/><path class="cls-1" d="M82.26,31.82H62.1V53.2H50.9V3H62.1V23.18H82.26V3h11.2V53.2H82.26Z"/><path class="cls-1" d="M102.42,3h38.65V11.6H113.62V23.5h26.17v8.58H113.62V44.56h28.09V53.2H102.42Z"/><path class="cls-1" d="M163.47,3h20.16V53.2H172.37V11.6h-8.9Z"/><path class="cls-1" d="M215,54.16a26.54,26.54,0,0,1-8.39-1.28A19.71,19.71,0,0,1,200,49.26a16.18,16.18,0,0,1-4.28-5.66,17.41,17.41,0,0,1-1.54-7.42,15.28,15.28,0,0,1,.54-4.16,23.54,23.54,0,0,1,1.35-3.62,24.14,24.14,0,0,1,1.76-3.14c.64-1,1.21-1.86,1.73-2.72L212.3,2h11.84L212.75,20.11a5.47,5.47,0,0,1,2.59-1.25,16.85,16.85,0,0,1,3.49-.35A16.24,16.24,0,0,1,225,19.73a16.44,16.44,0,0,1,5.38,3.52,17.68,17.68,0,0,1,5.31,12.93,17.55,17.55,0,0,1-1.53,7.42,16.49,16.49,0,0,1-4.26,5.66,19.23,19.23,0,0,1-6.53,3.62A26.16,26.16,0,0,1,215,54.16ZM214.93,27a11.38,11.38,0,0,0-4,.68,9.07,9.07,0,0,0-3.14,1.88,8.55,8.55,0,0,0-2,3,10.13,10.13,0,0,0,0,7.55,8.42,8.42,0,0,0,2,2.94,9.24,9.24,0,0,0,3.14,1.89,12.28,12.28,0,0,0,8,0A9.3,9.3,0,0,0,222.06,43a8.42,8.42,0,0,0,2.05-2.94,10,10,0,0,0,0-7.55,8.55,8.55,0,0,0-2.05-3,9.12,9.12,0,0,0-3.13-1.88A11.46,11.46,0,0,0,214.93,27Z"/><path class="cls-1" d="M239.82,3H283v8.7H267V53.2H255.76V11.66H239.82Z"/><path class="cls-1" d="M320.08,31.82H299.92V53.2h-11.2V3h11.2V23.18h20.16V3h11.2V53.2h-11.2Z"/></svg>