<svg id="Layer_1" data-name="Layer 1" xmlns="http://www.w3.org/2000/svg" viewBox="0 0 530.76 56.16"><defs><style>.cls-1{stroke:#000;stroke-miterlimit:10;stroke-width:4px;}</style></defs><path class="cls-1" d="M25.3,3q8.76,0,13.6,4.22t4.83,12a18.62,18.62,0,0,1-1.25,7,14.28,14.28,0,0,1-3.62,5.28,16,16,0,0,1-5.79,3.36,23.88,23.88,0,0,1-7.84,1.19h-12V53.2H2V3Zm-.58,24.45a7.56,7.56,0,0,0,5.86-2.21,8.08,8.08,0,0,0,2-5.66,8.2,8.2,0,0,0-2-5.7,7.5,7.5,0,0,0-5.86-2.24H13.2V27.41Z"/><path class="cls-1" d="M74.06,3a25,25,0,0,1,7.65,1.09,16.63,16.63,0,0,1,5.83,3.13,13.62,13.62,0,0,1,3.68,5A17.12,17.12,0,0,1,92.5,19,16.69,16.69,0,0,1,90,28.3a15.15,15.15,0,0,1-7.1,5.76L94.42,53.2H82.64L72.46,35.66H61.33V53.2H50.13V3ZM73.49,27a7.78,7.78,0,0,0,5.76-2.11,7.52,7.52,0,0,0,2.11-5.57,7.63,7.63,0,0,0-2.11-5.6,7.76,7.76,0,0,0-5.76-2.14H61.33V27Z"/><path class="cls-1" d="M150.67,28.05a29.75,29.75,0,0,1-1.85,10.75,22.94,22.94,0,0,1-13.51,13.5,31.62,31.62,0,0,1-21.37,0A23.2,23.2,0,0,1,105.71,47a23.44,23.44,0,0,1-5.28-8.22,29.53,29.53,0,0,1-1.85-10.75,29.53,29.53,0,0,1,1.85-10.75,23.26,23.26,0,0,1,5.28-8.2,23.53,23.53,0,0,1,8.23-5.24,31.62,31.62,0,0,1,21.37,0,23.62,23.62,0,0,1,8.23,5.24,23.26,23.26,0,0,1,5.28,8.2A29.75,29.75,0,0,1,150.67,28.05Zm-11.2,0a22.79,22.79,0,0,0-1.12-7.43,16.08,16.08,0,0,0-3.07-5.47,12.9,12.9,0,0,0-4.67-3.36,16.15,16.15,0,0,0-12,0A12.9,12.9,0,0,0,114,15.15a15.91,15.91,0,0,0-3.07,5.47,22.79,22.79,0,0,0-1.12,7.43,22.69,22.69,0,0,0,1.12,7.42A16.3,16.3,0,0,0,114,41a12.75,12.75,0,0,0,4.67,3.39,16.15,16.15,0,0,0,12,0A12.75,12.75,0,0,0,135.28,41a16.47,16.47,0,0,0,3.07-5.51A22.69,22.69,0,0,0,139.47,28.05Z"/><path class="cls-1" d="M158.67,53.2V3h18.5a40.29,40.29,0,0,1,10.88,1.38,21.37,21.37,0,0,1,8.41,4.38,19.83,19.83,0,0,1,5.41,7.78,30.91,30.91,0,0,1,1.92,11.55,31,31,0,0,1-1.92,11.55,20.09,20.09,0,0,1-5.41,7.81,21.16,21.16,0,0,1-8.41,4.41,40.29,40.29,0,0,1-10.88,1.38Zm11.2-41.6v33H178a17.41,17.41,0,0,0,5.89-1,11.67,11.67,0,0,0,4.61-3,13.91,13.91,0,0,0,3-5.12,22.43,22.43,0,0,0,1.09-7.45,22.27,22.27,0,0,0-1.09-7.39,13.91,13.91,0,0,0-3-5.12,11.67,11.67,0,0,0-4.61-3,17.41,17.41,0,0,0-5.89-1Z"/><path class="cls-1" d="M232.46,54.16A31.93,31.93,0,0,1,224,53.1a19.2,19.2,0,0,1-6.76-3.23,15.2,15.2,0,0,1-4.48-5.53,18,18,0,0,1-1.63-7.91V3h11.2v32.7c0,3.2.89,5.65,2.66,7.33s4.25,2.53,7.45,2.53,5.69-.84,7.46-2.53,2.66-4.13,2.66-7.33V3h11.19V36.43a17.9,17.9,0,0,1-1.63,7.91,15.09,15.09,0,0,1-4.48,5.53,19.24,19.24,0,0,1-6.75,3.23A32,32,0,0,1,232.46,54.16Z"/><path class="cls-1" d="M312.85,35.54a25.82,25.82,0,0,1-3.33,7.8A22.28,22.28,0,0,1,304,49.2a24.64,24.64,0,0,1-7.46,3.68,31,31,0,0,1-9.06,1.28,28.69,28.69,0,0,1-10.56-1.86A22.72,22.72,0,0,1,268.85,47a23.88,23.88,0,0,1-5.22-8.22,29.53,29.53,0,0,1-1.86-10.75,29.53,29.53,0,0,1,1.86-10.75,23.7,23.7,0,0,1,5.22-8.2,23,23,0,0,1,8.09-5.24A28.69,28.69,0,0,1,287.5,2a30.34,30.34,0,0,1,9.06,1.31A25.41,25.41,0,0,1,304,7a21.57,21.57,0,0,1,5.44,5.86,24.45,24.45,0,0,1,3.13,7.74H301.26a12.55,12.55,0,0,0-5-7.39,15.26,15.26,0,0,0-8.8-2.46A14.19,14.19,0,0,0,281.65,12a13.07,13.07,0,0,0-4.58,3.39,16.17,16.17,0,0,0-3,5.41,22.83,22.83,0,0,0-1.08,7.3,22.72,22.72,0,0,0,1.08,7.29,16.32,16.32,0,0,0,3,5.44,12.82,12.82,0,0,0,4.58,3.43,14.19,14.19,0,0,0,5.85,1.18,15,15,0,0,0,8.77-2.49,14.29,14.29,0,0,0,5.25-7.3Z"/><path class="cls-1" d="M320.53,3h38.65V11.6H331.73V23.5H357.9v8.58H331.73V44.56h28.09V53.2H320.53Z"/><path class="cls-1" d="M367.5,53.2V3H386a40.29,40.29,0,0,1,10.88,1.38,21.48,21.48,0,0,1,8.42,4.38,19.92,19.92,0,0,1,5.4,7.78,30.91,30.91,0,0,1,1.92,11.55A31,31,0,0,1,410.7,39.6a20.18,20.18,0,0,1-5.4,7.81,21.27,21.27,0,0,1-8.42,4.41A40.29,40.29,0,0,1,386,53.2Zm11.2-41.6v33h8.13a17.41,17.41,0,0,0,5.89-1,11.67,11.67,0,0,0,4.61-3,13.91,13.91,0,0,0,3-5.12,22.43,22.43,0,0,0,1.09-7.45,22.27,22.27,0,0,0-1.09-7.39,13.91,13.91,0,0,0-3-5.12,11.67,11.67,0,0,0-4.61-3,17.41,17.41,0,0,0-5.89-1Z"/><path class="cls-1" d="M473.29,26.77A9.79,9.79,0,0,1,478,31.28a14.62,14.62,0,0,1,1.69,7,15,15,0,0,1-1.28,6.37,13,13,0,0,1-3.55,4.67,15.88,15.88,0,0,1-5.34,2.88,21.62,21.62,0,0,1-6.66,1h-25V3H462a22.56,22.56,0,0,1,6.37.86,14.17,14.17,0,0,1,5,2.6,11.82,11.82,0,0,1,3.3,4.32,14.37,14.37,0,0,1,1.18,6,14.43,14.43,0,0,1-1.12,5.76A9.54,9.54,0,0,1,473.29,26.77ZM449,11.54V23.38h11.52a6.58,6.58,0,0,0,4.64-1.57,5.77,5.77,0,0,0,1.7-4.45A5.51,5.51,0,0,0,465.17,13a6.93,6.93,0,0,0-4.68-1.44Zm13,33.08A6.87,6.87,0,0,0,466.83,43a6.17,6.17,0,0,0,1.79-4.74,6.16,6.16,0,0,0-1.79-4.73A6.88,6.88,0,0,0,462,31.82H449v12.8Z"/><path class="cls-1" d="M498.38,53.2V34.45L480.33,3h12l9.47,17.47,2.05,4.48,2.05-4.48L515.34,3h12l-18,31.49V53.2Z"/></svg>