<svg id="Layer_1" data-name="Layer 1" xmlns="http://www.w3.org/2000/svg" viewBox="0 0 190.85 56.16"><defs><style>.cls-1{stroke:#000;stroke-miterlimit:10;stroke-width:4px;}</style></defs><path class="cls-1" d="M42,53.2H2.86V47.63L16.94,34.58q2.37-2.17,4.61-4.16a41.45,41.45,0,0,0,4-4,20.37,20.37,0,0,0,2.78-4.13,10.11,10.11,0,0,0,1.06-4.61A6.24,6.24,0,0,0,27,12.46a9.35,9.35,0,0,0-5.88-1.82,9.12,9.12,0,0,0-6,2.08c-1.67,1.39-2.61,3.57-2.83,6.56H2a18,18,0,0,1,1.51-7.17,16,16,0,0,1,4-5.44,17.83,17.83,0,0,1,6.08-3.45A23.9,23.9,0,0,1,21.36,2a27,27,0,0,1,7.78,1.06,18.33,18.33,0,0,1,6.11,3,13.74,13.74,0,0,1,4,4.86,15,15,0,0,1,1.4,6.59,12.69,12.69,0,0,1-1.08,5.15,24.92,24.92,0,0,1-2.92,4.9,48.35,48.35,0,0,1-4.25,4.9Q29.94,35,27.18,37.71l-6.84,6.85H42Z"/><path class="cls-1" d="M93.49,28.05a40,40,0,0,1-1.38,11A22.12,22.12,0,0,1,88,47.22a18.12,18.12,0,0,1-7,5.15,25.49,25.49,0,0,1-10,1.79,25.8,25.8,0,0,1-10-1.79,18.22,18.22,0,0,1-7-5.15A21.77,21.77,0,0,1,49.78,39a40.82,40.82,0,0,1-1.35-11,40.85,40.85,0,0,1,1.35-11A21.8,21.8,0,0,1,53.9,8.88a17.86,17.86,0,0,1,7-5.12A26.19,26.19,0,0,1,71,2a25.88,25.88,0,0,1,10,1.76,17.76,17.76,0,0,1,7,5.12,22.15,22.15,0,0,1,4.16,8.19A40,40,0,0,1,93.49,28.05Zm-11.2,0q0-8.89-2.75-13.15T71,10.64q-5.82,0-8.58,4.26T59.63,28.05q0,8.89,2.75,13.18T71,45.52q5.82,0,8.58-4.29T82.29,28.05Z"/><path class="cls-1" d="M139.57,53.2H100.4V47.63l14.08-13.05c1.58-1.45,3.11-2.84,4.61-4.16a43.89,43.89,0,0,0,4-4,20.37,20.37,0,0,0,2.78-4.13,10.24,10.24,0,0,0,1.06-4.61,6.24,6.24,0,0,0-2.35-5.22,9.31,9.31,0,0,0-5.88-1.82,9.14,9.14,0,0,0-6,2.08c-1.67,1.39-2.61,3.57-2.82,6.56H99.57a18,18,0,0,1,1.5-7.17,15.91,15.91,0,0,1,4-5.44,17.64,17.64,0,0,1,6.08-3.45A23.9,23.9,0,0,1,118.9,2a27,27,0,0,1,7.77,1.06,18.14,18.14,0,0,1,6.11,3,13.63,13.63,0,0,1,4,4.86,14.81,14.81,0,0,1,1.41,6.59,12.53,12.53,0,0,1-1.09,5.15,24.38,24.38,0,0,1-2.91,4.9,49.8,49.8,0,0,1-4.26,4.9q-2.43,2.46-5.18,5.21l-6.85,6.85h21.7Z"/><path class="cls-1" d="M181.49,44.24v9H170.93v-9H144.37V37L169.45,3h12v33h7.36v8.32Zm-10.56-8.32V16.4L156.72,35.92Z"/></svg>